<?xml version="1.0" encoding="UTF-8"?>
<svg id="Layer_1" xmlns="http://www.w3.org/2000/svg" version="1.1" viewBox="0 0 1907.18 467.75">
  <!-- Generator: Adobe Illustrator 30.0.0, SVG Export Plug-In . SVG Version: 2.1.1 Build 123)  -->
  <defs>
    <style>
      .st0, .st1 {
        fill: #12113f;
      }

      .st0, .st2 {
        fill-rule: evenodd;
      }

      .st3, .st2 {
        fill: #4697d2;
      }

      .st4 {
        fill: #231f20;
      }
    </style>
  </defs>
  <g>
    <path class="st1" d="M595.9,255.15c-10.64,0-18.89,2.11-24.76,6.32-5.87,4.21-8.81,10.53-8.81,18.95,0,7.76,4.26,14.57,12.8,20.44,8.53,5.87,19.89,11.47,34.07,16.79,11.52,4.21,21.38,9.03,29.58,14.46,8.2,5.43,15.01,12.91,20.44,22.44,5.43,9.53,8.14,21.61,8.14,36.23,0,12.63-3.27,24.32-9.81,35.07-6.54,10.75-16.12,19.28-28.75,25.59s-27.7,9.47-45.21,9.47c-14.62,0-29.14-2.16-43.54-6.48-14.41-4.32-27.81-10.91-40.22-19.78l21.27-37.56c8.42,6.21,18.06,11.3,28.92,15.29,10.85,3.99,20.61,5.98,29.25,5.98,10.19,0,19.06-2.16,26.59-6.48,7.53-4.32,11.3-11.35,11.3-21.11,0-12.63-11.86-23.6-35.57-32.91-13.96-5.54-25.59-10.85-34.9-15.95-9.31-5.1-17.34-12.41-24.1-21.94-6.76-9.53-10.14-21.49-10.14-35.9,0-21.05,6.92-38,20.77-50.86,13.85-12.85,32.29-19.83,55.34-20.94,18.17,0,33.35,2.05,45.54,6.15,12.18,4.1,24.04,9.92,35.57,17.45l-18.28,36.9c-21.27-11.74-39.78-17.62-55.51-17.62Z"/>
    <path class="st1" d="M842.36,318.31c9.19,8.2,13.9,18.61,14.13,31.25v108.69h-46.53v-91.41c-.67-14.18-7.76-21.27-21.27-21.27-10.64,0-19.17,4.99-25.59,14.96-6.43,9.97-9.64,22.83-9.64,38.56v59.17h-46.54V195.99h45.54v139.94c5.32-9.31,12.68-16.62,22.1-21.94,9.42-5.32,20.55-7.98,33.41-7.98,13.74,0,25.2,4.1,34.4,12.3Z"/>
    <path class="st1" d="M903.52,343.9c6.98-11.74,16.84-20.99,29.58-27.75,12.74-6.76,27.2-10.14,43.38-10.14s30.41,3.38,42.71,10.14c12.3,6.76,21.77,16.01,28.42,27.75,6.65,11.75,9.97,25.04,9.97,39.89s-3.32,28.25-9.97,40.22-16.12,21.33-28.42,28.09c-12.3,6.76-26.76,10.14-43.38,10.14s-30.53-3.16-43.04-9.47c-12.52-6.32-22.27-15.34-29.25-27.09-6.98-11.74-10.47-25.7-10.47-41.88,0-14.84,3.49-28.14,10.47-39.89ZM949.89,412.87c6.65,7.64,15.07,11.47,25.26,11.47s19.22-3.76,25.76-11.3c6.53-7.53,9.81-17.17,9.81-28.92s-3.27-21.38-9.81-28.92c-6.54-7.53-15.12-11.3-25.76-11.3s-18.61,3.82-25.26,11.47c-6.65,7.64-9.97,17.23-9.97,28.75s3.32,21.11,9.97,28.75Z"/>
    <path class="st1" d="M1154.31,249.17v63.16h35.23v36.23h-35.23v109.69h-46.54v-109.69h-22.6v-36.23h22.6v-63.16h46.54Z"/>
    <path class="st3" d="M1484.71,203.63v254.61h-48.2v-116.67l-79.77,113.35h-.67l-76.78-106.03v109.36h-46.54v-254.61h.33l123.98,175.83,126.97-175.83h.66Z"/>
    <path class="st3" d="M1696.44,312.99v145.26h-46.53v-17.95c-13.96,14.62-30.14,21.94-48.53,21.94-21.5,0-38.95-6.42-52.35-19.28-13.41-12.85-20.11-31.91-20.11-57.17,0-15.95,3.27-29.97,9.81-42.05,6.53-12.08,15.23-21.44,26.09-28.09,10.85-6.65,22.49-9.97,34.9-9.97s23.04,1.94,30.58,5.82c7.53,3.88,14.18,9.36,19.94,16.45l2.99-14.96h43.21ZM1649.91,402.4v-35.57c-2.66-7.09-7.26-12.74-13.79-16.95-6.54-4.21-14.24-6.32-23.1-6.32-10.2,0-18.89,3.77-26.09,11.3-7.2,7.54-10.8,17.07-10.8,28.59,0,7.54,1.77,14.46,5.32,20.77,3.54,6.32,8.25,11.25,14.13,14.79,5.87,3.55,12.24,5.32,19.11,5.32,16.17,0,27.92-7.31,35.23-21.94Z"/>
    <path class="st3" d="M1751.12,244.68c5.2-4.54,11.14-6.81,17.78-6.81s12.18,2.27,17.28,6.81c5.09,4.54,7.65,10.14,7.65,16.79s-2.55,12.19-7.65,16.62c-5.1,4.43-10.86,6.65-17.28,6.65s-12.58-2.21-17.78-6.65c-5.21-4.43-7.81-9.97-7.81-16.62s2.6-12.24,7.81-16.79ZM1790.84,312.99v145.26h-46.53v-145.26h46.53Z"/>
    <path class="st3" d="M1885.24,195.99v262.26h-46.53V195.99h46.53Z"/>
  </g>
  <g>
    <path class="st4" d="M1145.47,96.88c-2.43,0-4.73-.23-6.87-.69-2.15-.46-4.16-1.15-6.03-2.07-1.87-.92-3.62-2.07-5.25-3.45l3-3.93c2.11,1.84,4.43,3.22,6.94,4.13,2.51.92,5.25,1.38,8.22,1.38,4.32,0,7.65-.85,9.99-2.55,2.34-1.7,3.51-4.09,3.51-7.17v-.03c0-2.09-.57-3.7-1.72-4.82-1.15-1.12-2.65-1.98-4.5-2.55-1.85-.57-3.85-1.07-6.01-1.48-2-.39-4-.82-6.01-1.29-2.01-.47-3.85-1.14-5.51-2-1.67-.86-3-2.08-4.01-3.65-1.01-1.57-1.52-3.66-1.52-6.25v-.03c0-4.66,1.55-8.28,4.65-10.84,3.1-2.56,7.48-3.84,13.13-3.84,2.66,0,5.28.43,7.84,1.29s5.08,2.18,7.56,3.95l-2.93,3.89c-2.16-1.52-4.27-2.65-6.34-3.39s-4.11-1.12-6.13-1.12c-4.09,0-7.26.86-9.51,2.57-2.25,1.71-3.38,4.14-3.38,7.29v.03c0,2.07.64,3.64,1.91,4.72,1.28,1.08,2.93,1.9,4.96,2.45,2.03.55,4.19,1.06,6.46,1.52,1.93.39,3.84.85,5.74,1.38,1.89.53,3.61,1.25,5.15,2.17,1.54.92,2.77,2.17,3.69,3.74.92,1.57,1.38,3.6,1.38,6.08v.07c0,4.62-1.61,8.19-4.82,10.72-3.22,2.53-7.74,3.79-13.58,3.79Z"/>
    <path class="st4" d="M1173.17,96.37v-50.1h4.96v50.1h-4.96ZM1176.58,50.88v-4.62h28.77v4.62h-28.77ZM1176.58,73.79v-4.62h24.98v4.62h-24.98ZM1176.58,96.37v-4.62h28.77v4.62h-28.77Z"/>
    <path class="st4" d="M1215.35,96.33v-50.07h5l29.08,45.14-2.03-1.38v-43.76h4.96v50.07h-5.07l-29.67-45.49,2.69,1.96v43.52h-4.96Z"/>
    <path class="st4" d="M1264.76,96.37v-50.1h4.96v50.1h-4.96ZM1269.52,96.37v-4.62h11.34c4.64,0,8.12-1.09,10.42-3.26s3.46-5.44,3.46-9.8v-14.75c0-4.36-1.15-7.63-3.46-9.8s-5.78-3.26-10.42-3.26h-11.34v-4.62h11.13c6.39,0,11.16,1.49,14.32,4.48,3.16,2.99,4.74,7.48,4.74,13.47v14.2c0,4-.71,7.32-2.12,9.98s-3.53,4.65-6.36,5.98c-2.83,1.33-6.36,2-10.61,2h-11.1Z"/>
    <path class="st1" d="M1326.79,102.29v-61.96h7.51v61.96h-7.51Z"/>
    <path class="st4" d="M1378.82,96.88c-3.49,0-6.55-.78-9.17-2.33-2.62-1.55-4.65-3.73-6.1-6.53s-2.17-6.08-2.17-9.82v-13.75c0-3.77.72-7.05,2.17-9.86,1.45-2.8,3.48-4.98,6.1-6.53,2.62-1.55,5.67-2.33,9.17-2.33,2.89,0,5.54.59,7.94,1.77,2.4,1.18,4.41,2.84,6.03,4.96,1.62,2.13,2.72,4.61,3.29,7.46h-4.96c-.55-1.93-1.46-3.61-2.72-5.05-1.26-1.44-2.73-2.55-4.39-3.34-1.67-.79-3.39-1.19-5.19-1.19-3.74,0-6.76,1.29-9.04,3.86-2.29,2.57-3.43,5.98-3.43,10.23v13.75c0,4.23,1.14,7.63,3.43,10.2,2.29,2.57,5.3,3.86,9.04,3.86,2.67,0,5.17-.83,7.51-2.5,2.34-1.67,3.94-4.03,4.79-7.08h4.96c-.58,2.85-1.68,5.34-3.31,7.46-1.63,2.12-3.64,3.78-6.03,4.96-2.39,1.18-5.03,1.77-7.93,1.77Z"/>
    <path class="st4" d="M1421.28,96.88c-3.75,0-6.93-.72-9.54-2.17-2.62-1.45-4.62-3.55-6-6.31s-2.07-6.09-2.07-9.99v-14.2c0-3.93.69-7.27,2.07-10.01s3.38-4.84,6-6.29c2.62-1.45,5.8-2.17,9.54-2.17s6.93.72,9.54,2.17,4.62,3.54,6,6.29c1.38,2.75,2.07,6.08,2.07,10.01v14.2c0,3.91-.69,7.24-2.07,9.99-1.38,2.76-3.38,4.86-6,6.31s-5.8,2.17-9.54,2.17ZM1421.28,92.26c4.02,0,7.13-1.19,9.34-3.57,2.21-2.38,3.31-5.73,3.31-10.04v-14.68c0-4.32-1.1-7.67-3.31-10.04-2.21-2.38-5.32-3.57-9.34-3.57s-7.13,1.19-9.34,3.57c-2.21,2.38-3.31,5.73-3.31,10.04v14.68c0,4.32,1.1,7.67,3.31,10.04,2.21,2.38,5.32,3.57,9.34,3.57Z"/>
    <path class="st4" d="M1449.57,96.33v-50.07h5l29.08,45.14-2.03-1.38v-43.76h4.96v50.07h-5.07l-29.67-45.49,2.69,1.96v43.52h-4.96Z"/>
    <path class="st4" d="M1498.98,96.33v-50.07h5l29.08,45.14-2.03-1.38v-43.76h4.96v50.07h-5.07l-29.67-45.49,2.69,1.96v43.52h-4.96Z"/>
    <path class="st4" d="M1548.39,96.37v-50.1h4.96v50.1h-4.96ZM1551.81,50.88v-4.62h28.77v4.62h-28.77ZM1551.81,73.79v-4.62h24.98v4.62h-24.98ZM1551.81,96.37v-4.62h28.77v4.62h-28.77Z"/>
    <path class="st4" d="M1606.97,96.88c-3.49,0-6.55-.78-9.17-2.33-2.62-1.55-4.65-3.73-6.1-6.53s-2.17-6.08-2.17-9.82v-13.75c0-3.77.72-7.05,2.17-9.86,1.45-2.8,3.48-4.98,6.1-6.53,2.62-1.55,5.67-2.33,9.17-2.33,2.89,0,5.54.59,7.94,1.77,2.4,1.18,4.41,2.84,6.03,4.96,1.62,2.13,2.72,4.61,3.29,7.46h-4.96c-.55-1.93-1.46-3.61-2.72-5.05-1.26-1.44-2.73-2.55-4.39-3.34-1.67-.79-3.39-1.19-5.19-1.19-3.74,0-6.76,1.29-9.04,3.86-2.29,2.57-3.43,5.98-3.43,10.23v13.75c0,4.23,1.14,7.63,3.43,10.2,2.29,2.57,5.3,3.86,9.04,3.86,2.67,0,5.17-.83,7.51-2.5,2.34-1.67,3.94-4.03,4.79-7.08h4.96c-.58,2.85-1.68,5.34-3.31,7.46-1.63,2.12-3.64,3.78-6.03,4.96-2.39,1.18-5.03,1.77-7.93,1.77Z"/>
    <path class="st4" d="M1627.34,50.88v-4.62h35.35v4.62h-35.35ZM1642.54,96.37v-48.07h4.96v48.07h-4.96Z"/>
    <path class="st1" d="M1683.92,102.29v-61.96h7.51v61.96h-7.51Z"/>
    <path class="st4" d="M1736.43,70.76h17.37v7.37c0,4.18-.65,7.66-1.95,10.44-1.3,2.78-3.25,4.86-5.84,6.24-2.6,1.38-5.85,2.07-9.75,2.07s-7.24-.65-9.87-1.95c-2.63-1.3-4.6-3.26-5.91-5.88-1.31-2.62-1.96-5.89-1.96-9.82v-14.78c0-4.18.65-7.66,1.95-10.42,1.3-2.77,3.25-4.84,5.84-6.22s5.85-2.07,9.75-2.07c3.24,0,6.03.55,8.37,1.65,2.34,1.1,4.26,2.75,5.75,4.94,1.49,2.19,2.56,4.96,3.21,8.29h-5.38c-.87-3.42-2.3-5.99-4.29-7.7s-4.54-2.57-7.67-2.57c-4.2,0-7.35,1.17-9.44,3.51-2.09,2.34-3.14,5.87-3.14,10.58v14.78c0,4.36,1.06,7.63,3.19,9.79,2.12,2.16,5.32,3.24,9.6,3.24s7.19-1.13,9.24-3.38c2.04-2.25,3.07-5.8,3.07-10.65v-2.86h-12.13v-4.62Z"/>
    <path class="st4" d="M1764.48,96.37v-50.14h4.96v50.14h-4.96ZM1767.55,75.17v-4.62h17.09c2.83,0,5.09-.9,6.79-2.71,1.7-1.8,2.56-4.19,2.58-7.15,0-2.96-.85-5.35-2.55-7.15-1.7-1.8-3.97-2.71-6.82-2.71h-17.09v-4.62h16.82c2.92,0,5.47.6,7.65,1.81,2.18,1.21,3.88,2.89,5.08,5.05,1.21,2.16,1.81,4.7,1.81,7.62s-.61,5.43-1.83,7.6c-1.22,2.17-2.91,3.86-5.08,5.07s-4.72,1.81-7.63,1.81h-16.82ZM1795.08,96.37l-11.47-22.74,4.58-1.58,12.82,24.33h-5.93Z"/>
    <path class="st4" d="M1825.68,96.88c-3.75,0-6.93-.72-9.54-2.17-2.62-1.45-4.62-3.55-6-6.31s-2.07-6.09-2.07-9.99v-14.2c0-3.93.69-7.27,2.07-10.01s3.38-4.84,6-6.29c2.62-1.45,5.8-2.17,9.54-2.17s6.93.72,9.54,2.17,4.62,3.54,6,6.29c1.38,2.75,2.07,6.08,2.07,10.01v14.2c0,3.91-.69,7.24-2.07,9.99-1.38,2.76-3.38,4.86-6,6.31s-5.8,2.17-9.54,2.17ZM1825.68,92.26c4.02,0,7.13-1.19,9.34-3.57,2.21-2.38,3.31-5.73,3.31-10.04v-14.68c0-4.32-1.1-7.67-3.31-10.04-2.21-2.38-5.32-3.57-9.34-3.57s-7.13,1.19-9.34,3.57c-2.21,2.38-3.31,5.73-3.31,10.04v14.68c0,4.32,1.1,7.67,3.31,10.04,2.21,2.38,5.32,3.57,9.34,3.57Z"/>
    <path class="st4" d="M1865.66,89.34l10.96-43.07h3.45l10.96,43.07,10.58-43.07h5.58l-13.61,50.1h-5.1l-9.92-39.49-10.34,39.49h-5.1l-13.61-50.1h5.58l10.58,43.07Z"/>
  </g>
  <g>
    <path class="st3" d="M91.85,139.89h352.09l-46.25,32.18H97.39l150.19,135.36,94.93-67.68c80.84-57.59,116.94-83,197.85-140.41l-276.07,232.86,205.47-146.49-216.88,154.61c-6.44,4.75-14.94,5.01-20.27.2L67.01,191.26l-34.27,227.21c-.71,4.69.58,8.96,3.21,12.06,2.64,3.11,6.62,5.03,11.3,5.03h368.09c4.69,0,9.25-1.93,12.82-5.03,3.57-3.11,6.15-7.38,6.85-12.06l34.58-229.3c.18-1.18.23-2.34.16-3.46l27.79-23.94c4.09,7.84,5.75,17.27,4.22,27.4l-34.58,229.3c-2.05,13.57-9.44,25.89-19.71,34.82-10.27,8.92-23.43,14.46-37,14.46H42.41c-13.57,0-25.06-5.54-32.63-14.46-7.58-8.92-11.26-21.25-9.21-34.82l34.58-229.3c2.05-13.57,9.44-25.89,19.71-34.82,10.27-8.92,23.43-14.46,37-14.46h0Z"/>
    <polygon class="st2" points="443.94 139.89 326.43 223.44 412.93 139.89 443.94 139.89"/>
    <polygon class="st0" points="622.98 36.81 545.55 101.82 532.49 160.17 670.84 0 497.67 79.41 542.01 93.62 622.98 36.81"/>
  </g>
</svg>