<?xml version="1.0" encoding="UTF-8"?>
<svg id="Layer_1" xmlns="http://www.w3.org/2000/svg" version="1.1" viewBox="0 0 670.84 467.75">
  <!-- Generator: Adobe Illustrator 30.0.0, SVG Export Plug-In . SVG Version: 2.1.1 Build 123)  -->
  <defs>
    <style>
      .st0 {
        fill: #12113f;
      }

      .st0, .st1 {
        fill-rule: evenodd;
      }

      .st2, .st1 {
        fill: #4697d2;
      }
    </style>
  </defs>
  <path class="st2" d="M91.85,139.89h352.09l-46.25,32.18H97.39l150.19,135.36,94.93-67.68c80.84-57.59,116.94-83,197.85-140.41l-276.07,232.86,205.47-146.49-216.88,154.61c-6.44,4.75-14.94,5.01-20.27.2L67.01,191.26l-34.27,227.21c-.71,4.69.58,8.96,3.21,12.06,2.64,3.11,6.62,5.03,11.3,5.03h368.09c4.69,0,9.25-1.93,12.82-5.03,3.57-3.11,6.15-7.38,6.85-12.06l34.58-229.3c.18-1.18.23-2.34.16-3.46l27.79-23.94c4.09,7.84,5.75,17.27,4.22,27.4l-34.58,229.3c-2.05,13.57-9.44,25.89-19.71,34.82-10.27,8.92-23.43,14.46-37,14.46H42.41c-13.57,0-25.06-5.54-32.63-14.46-7.58-8.92-11.26-21.25-9.21-34.82l34.58-229.3c2.05-13.57,9.44-25.89,19.71-34.82,10.27-8.92,23.43-14.46,37-14.46h0Z"/>
  <polygon class="st1" points="443.94 139.89 326.43 223.44 412.93 139.89 443.94 139.89"/>
  <polygon class="st0" points="622.98 36.81 545.55 101.82 532.49 160.17 670.84 0 497.67 79.41 542.01 93.62 622.98 36.81"/>
</svg>